<svg width="120" height="40" viewBox="0 0 120 40" xmlns="http://www.w3.org/2000/svg">
  <!-- Main Logo Container -->
  <g>
    <!-- L Symbol -->
    <g transform="translate(8, 8)">
      <!-- Modern L shape with geometric precision -->
      <path d="M0 0 L0 20 L16 20 L16 16 L4 16 L4 0 Z" 
            fill="#2563EB" 
            stroke="none"/>
      <!-- Accent dot for modern touch -->
      <circle cx="18" cy="18" r="2" fill="#DC2626"/>
    </g>
    
    <!-- Logma Text -->
    <g transform="translate(36, 12)" fill="#1F2937">
      <!-- L -->
      <path d="M0 0 L0 16 L8 16 L8 13 L3 13 L3 0 Z"/>
      <!-- o -->
      <circle cx="13" cy="11" r="3" fill="none" stroke="#1F2937" stroke-width="2"/>
      <!-- g -->
      <path d="M20 8 C20 6 21.5 4.5 23.5 4.5 C25.5 4.5 27 6 27 8 C27 10 25.5 11.5 23.5 11.5 L23.5 13.5 C25.5 13.5 27 15 27 17 C27 19 25.5 20.5 23.5 20.5 C21.5 20.5 20 19 20 17"
            fill="none" 
            stroke="#1F2937" 
            stroke-width="2" 
            stroke-linecap="round"/>
      <!-- m -->
      <path d="M31 5 L31 16 M31 8 C31 6 32 5 33.5 5 C35 5 36 6 36 8 L36 16 M36 8 C36 6 37 5 38.5 5 C40 5 41 6 41 8 L41 16"
            fill="none" 
            stroke="#1F2937" 
            stroke-width="2" 
            stroke-linecap="round"/>
      <!-- a -->
      <path d="M45 8 C45 6 46.5 4.5 48.5 4.5 C50.5 4.5 52 6 52 8 C52 10 50.5 11.5 48.5 11.5 C46.5 11.5 45 10 45 8 M48.5 11.5 L48.5 16"
            fill="none" 
            stroke="#1F2937" 
            stroke-width="2" 
            stroke-linecap="round"/>
    </g>
  </g>
</svg>